<svg xmlns="http://www.w3.org/2000/svg" viewBox="0 0 1100 775" role="img" aria-labelledby="title desc">
<title id="title">Strix Halo LLM throughput: Qwen and DeepSeek</title>
<desc id="desc">Reading and answer-writing speeds on a 128 GiB Ryzen AI Max+ 395. The test asks each model to find five labelled phrases placed in a long text. Every run found all five correctly. The winning setup for Qwen and the winning setup for DeepSeek are shown with their respective comparison baselines. Each point measures one request at the input length shown. Each horizontal tick doubles the input length.</desc>
<style>text{font-family:Arial,sans-serif;fill:#24292f}.title{font-size:26px;font-weight:700}.sub{font-size:15px;fill:#57606a}.label{font-size:16px}.tick{font-size:13px;fill:#57606a}.panel{font-size:18px;font-weight:700}.grid{stroke:#d8dee4;stroke-dasharray:3 5}.value{font-size:14px;font-weight:700}</style>
<rect width="1100" height="775" fill="white"/>
<text x="70" y="40" class="title">Strix Halo LLM benchmarks</text>
<text x="70" y="67" class="sub">Ryzen AI Max+ 395 · Radeon 8060S · 128 GiB RAM · 120 W · reasoning mode disabled</text>
<line x1="70" y1="99" x2="98" y2="99" stroke="#0969da" stroke-width="3"/>
<text x="110" y="104" class="label" style="font-weight:700">Qwen · Strata HIP UD-Q4_K_XL</text>
<line x1="70" y1="123" x2="98" y2="123" stroke="#008577" stroke-width="3"/>
<text x="110" y="128" class="label" style="font-weight:400">Qwen · Strix Halo llama.cpp Vulkan UD-Q4_K_XL</text>
<line x1="70" y1="147" x2="98" y2="147" stroke="#8957e5" stroke-width="3"/>
<text x="110" y="152" class="label" style="font-weight:700">DeepSeek · Strix Halo llama.cpp Vulkan IQ3_XXS</text>
<line x1="70" y1="171" x2="98" y2="171" stroke="#bc4c00" stroke-width="3"/>
<text x="110" y="176" class="label" style="font-weight:400">DeepSeek · Lucebox ROCm ROCmFPX</text>
<text x="80" y="215" class="panel">Reading the input (tokens/second) · higher is better</text>
<line class="grid" x1="80" y1="400.00" x2="1020" y2="400.00"/>
<text class="tick" x="68" y="404.00" text-anchor="end">0</text>
<line class="grid" x1="80" y1="358.75" x2="1020" y2="358.75"/>
<text class="tick" x="68" y="362.75" text-anchor="end">225</text>
<line class="grid" x1="80" y1="317.50" x2="1020" y2="317.50"/>
<text class="tick" x="68" y="321.50" text-anchor="end">450</text>
<line class="grid" x1="80" y1="276.25" x2="1020" y2="276.25"/>
<text class="tick" x="68" y="280.25" text-anchor="end">675</text>
<line class="grid" x1="80" y1="235.00" x2="1020" y2="235.00"/>
<text class="tick" x="68" y="239.00" text-anchor="end">900</text>
<line class="grid" x1="101.38" y1="235" x2="101.38" y2="400"/>
<text class="tick" x="101.38" y="422" text-anchor="middle">2K</text>
<line class="grid" x1="216.21" y1="235" x2="216.21" y2="400"/>
<text class="tick" x="216.21" y="422" text-anchor="middle">4K</text>
<line class="grid" x1="331.04" y1="235" x2="331.04" y2="400"/>
<text class="tick" x="331.04" y="422" text-anchor="middle">8K</text>
<line class="grid" x1="445.86" y1="235" x2="445.86" y2="400"/>
<text class="tick" x="445.86" y="422" text-anchor="middle">16K</text>
<line class="grid" x1="560.69" y1="235" x2="560.69" y2="400"/>
<text class="tick" x="560.69" y="422" text-anchor="middle">32K</text>
<line class="grid" x1="675.52" y1="235" x2="675.52" y2="400"/>
<text class="tick" x="675.52" y="422" text-anchor="middle">64K</text>
<line class="grid" x1="790.35" y1="235" x2="790.35" y2="400"/>
<text class="tick" x="790.35" y="422" text-anchor="middle">128K</text>
<line class="grid" x1="905.17" y1="235" x2="905.17" y2="400"/>
<text class="tick" x="905.17" y="422" text-anchor="middle">256K</text>
<line class="grid" x1="1020.00" y1="235" x2="1020.00" y2="400"/>
<text class="tick" x="1020.00" y="422" text-anchor="middle">512K</text>
<path d="M87.29 340.89 L192.60 311.19 L307.76 281.04 L422.74 262.34 L537.64 261.12 L648.40 260.94 L767.36 255.09 L815.02 261.55 L858.49 264.64 L882.19 265.34" fill="none" stroke="#0969da" stroke-width="2.7"/>
<circle cx="87.29" cy="340.89" r="4" fill="#0969da"><title>1,881 tokens: 322.40</title></circle>
<circle cx="192.60" cy="311.19" r="4" fill="#0969da"><title>3,552 tokens: 484.40</title></circle>
<circle cx="307.76" cy="281.04" r="4" fill="#0969da"><title>7,118 tokens: 648.90</title></circle>
<circle cx="422.74" cy="262.34" r="4" fill="#0969da"><title>14,249 tokens: 750.90</title></circle>
<circle cx="537.64" cy="261.12" r="4" fill="#0969da"><title>28,512 tokens: 757.50</title></circle>
<circle cx="648.40" cy="260.94" r="4" fill="#0969da"><title>55,639 tokens: 758.50</title></circle>
<circle cx="767.36" cy="255.09" r="4" fill="#0969da"><title>114,089 tokens: 790.40</title></circle>
<circle cx="815.02" cy="261.55" r="4" fill="#0969da"><title>152,124 tokens: 755.20</title></circle>
<circle cx="858.49" cy="264.64" r="4" fill="#0969da"><title>197,765 tokens: 738.30</title></circle>
<circle cx="882.19" cy="265.34" r="4" fill="#0969da"><title>228,192 tokens: 734.50</title></circle>
<text class="value" x="882.19" y="253.34" text-anchor="end" style="fill:#0969da">734.5</text>
<path d="M87.29 314.70 L192.60 301.99 L307.76 301.84 L422.74 306.07 L537.64 314.50 L648.40 323.92 L767.36 336.21 L815.02 341.19 L858.49 345.92 L882.19 348.62" fill="none" stroke="#008577" stroke-width="2.7"/>
<circle cx="87.29" cy="314.70" r="4" fill="#008577"><title>1,881 tokens: 465.25</title></circle>
<circle cx="192.60" cy="301.99" r="4" fill="#008577"><title>3,552 tokens: 534.63</title></circle>
<circle cx="307.76" cy="301.84" r="4" fill="#008577"><title>7,118 tokens: 535.41</title></circle>
<circle cx="422.74" cy="306.07" r="4" fill="#008577"><title>14,249 tokens: 512.34</title></circle>
<circle cx="537.64" cy="314.50" r="4" fill="#008577"><title>28,512 tokens: 466.38</title></circle>
<circle cx="648.40" cy="323.92" r="4" fill="#008577"><title>55,639 tokens: 415.00</title></circle>
<circle cx="767.36" cy="336.21" r="4" fill="#008577"><title>114,089 tokens: 347.96</title></circle>
<circle cx="815.02" cy="341.19" r="4" fill="#008577"><title>152,124 tokens: 320.77</title></circle>
<circle cx="858.49" cy="345.92" r="4" fill="#008577"><title>197,765 tokens: 294.96</title></circle>
<circle cx="882.19" cy="348.62" r="4" fill="#008577"><title>228,192 tokens: 280.26</title></circle>
<text class="value" x="882.19" y="336.62" text-anchor="end" style="fill:#008577">280.3</text>
<path d="M100.73 355.04 L205.52 352.31 L320.35 353.42 L435.16 353.26 L550.00 354.06 L660.71 355.23 L779.65 358.42 L827.31 359.93 L870.78 362.11 L894.48 363.30 L1009.31 370.08" fill="none" stroke="#8957e5" stroke-width="2.7"/>
<circle cx="100.73" cy="355.04" r="4" fill="#8957e5"><title>2,040 tokens: 245.23</title></circle>
<circle cx="205.52" cy="352.31" r="4" fill="#8957e5"><title>3,840 tokens: 260.12</title></circle>
<circle cx="320.35" cy="353.42" r="4" fill="#8957e5"><title>7,680 tokens: 254.07</title></circle>
<circle cx="435.16" cy="353.26" r="4" fill="#8957e5"><title>15,359 tokens: 254.94</title></circle>
<circle cx="550.00" cy="354.06" r="4" fill="#8957e5"><title>30,720 tokens: 250.59</title></circle>
<circle cx="660.71" cy="355.23" r="4" fill="#8957e5"><title>59,933 tokens: 244.19</title></circle>
<circle cx="779.65" cy="358.42" r="4" fill="#8957e5"><title>122,879 tokens: 226.82</title></circle>
<circle cx="827.31" cy="359.93" r="4" fill="#8957e5"><title>163,840 tokens: 218.56</title></circle>
<circle cx="870.78" cy="362.11" r="4" fill="#8957e5"><title>212,992 tokens: 206.65</title></circle>
<circle cx="894.48" cy="363.30" r="4" fill="#8957e5"><title>245,760 tokens: 200.21</title></circle>
<circle cx="1009.31" cy="370.08" r="4" fill="#8957e5"><title>491,520 tokens: 163.23</title></circle>
<text class="value" x="1009.31" y="358.08" text-anchor="end" style="fill:#8957e5">163.2</text>
<path d="M320.35 360.78 L550.00 363.02 L779.65 373.82" fill="none" stroke="#bc4c00" stroke-width="2.7"/>
<circle cx="320.35" cy="360.78" r="4" fill="#bc4c00"><title>7,680 tokens: 213.91</title></circle>
<circle cx="550.00" cy="363.02" r="4" fill="#bc4c00"><title>30,720 tokens: 201.68</title></circle>
<circle cx="779.65" cy="373.82" r="4" fill="#bc4c00"><title>122,879 tokens: 142.82</title></circle>
<text class="value" x="779.65" y="394.82" text-anchor="end" style="fill:#bc4c00">142.8</text>
<text x="80" y="460" class="panel">Writing the answer (tokens/second) · higher is better</text>
<line class="grid" x1="80" y1="645.00" x2="1020" y2="645.00"/>
<text class="tick" x="68" y="649.00" text-anchor="end">0</text>
<line class="grid" x1="80" y1="603.75" x2="1020" y2="603.75"/>
<text class="tick" x="68" y="607.75" text-anchor="end">15</text>
<line class="grid" x1="80" y1="562.50" x2="1020" y2="562.50"/>
<text class="tick" x="68" y="566.50" text-anchor="end">30</text>
<line class="grid" x1="80" y1="521.25" x2="1020" y2="521.25"/>
<text class="tick" x="68" y="525.25" text-anchor="end">45</text>
<line class="grid" x1="80" y1="480.00" x2="1020" y2="480.00"/>
<text class="tick" x="68" y="484.00" text-anchor="end">60</text>
<line class="grid" x1="101.38" y1="480" x2="101.38" y2="645"/>
<text class="tick" x="101.38" y="667" text-anchor="middle">2K</text>
<line class="grid" x1="216.21" y1="480" x2="216.21" y2="645"/>
<text class="tick" x="216.21" y="667" text-anchor="middle">4K</text>
<line class="grid" x1="331.04" y1="480" x2="331.04" y2="645"/>
<text class="tick" x="331.04" y="667" text-anchor="middle">8K</text>
<line class="grid" x1="445.86" y1="480" x2="445.86" y2="645"/>
<text class="tick" x="445.86" y="667" text-anchor="middle">16K</text>
<line class="grid" x1="560.69" y1="480" x2="560.69" y2="645"/>
<text class="tick" x="560.69" y="667" text-anchor="middle">32K</text>
<line class="grid" x1="675.52" y1="480" x2="675.52" y2="645"/>
<text class="tick" x="675.52" y="667" text-anchor="middle">64K</text>
<line class="grid" x1="790.35" y1="480" x2="790.35" y2="645"/>
<text class="tick" x="790.35" y="667" text-anchor="middle">128K</text>
<line class="grid" x1="905.17" y1="480" x2="905.17" y2="645"/>
<text class="tick" x="905.17" y="667" text-anchor="middle">256K</text>
<line class="grid" x1="1020.00" y1="480" x2="1020.00" y2="645"/>
<text class="tick" x="1020.00" y="667" text-anchor="middle">512K</text>
<path d="M87.29 534.45 L192.60 513.00 L307.76 513.00 L422.74 513.55 L537.64 508.88 L648.40 509.43 L767.36 528.40 L815.02 526.20 L858.49 528.67 L882.19 524.83" fill="none" stroke="#0969da" stroke-width="2.7"/>
<circle cx="87.29" cy="534.45" r="4" fill="#0969da"><title>1,881 tokens: 40.20</title></circle>
<circle cx="192.60" cy="513.00" r="4" fill="#0969da"><title>3,552 tokens: 48.00</title></circle>
<circle cx="307.76" cy="513.00" r="4" fill="#0969da"><title>7,118 tokens: 48.00</title></circle>
<circle cx="422.74" cy="513.55" r="4" fill="#0969da"><title>14,249 tokens: 47.80</title></circle>
<circle cx="537.64" cy="508.88" r="4" fill="#0969da"><title>28,512 tokens: 49.50</title></circle>
<circle cx="648.40" cy="509.43" r="4" fill="#0969da"><title>55,639 tokens: 49.30</title></circle>
<circle cx="767.36" cy="528.40" r="4" fill="#0969da"><title>114,089 tokens: 42.40</title></circle>
<circle cx="815.02" cy="526.20" r="4" fill="#0969da"><title>152,124 tokens: 43.20</title></circle>
<circle cx="858.49" cy="528.67" r="4" fill="#0969da"><title>197,765 tokens: 42.30</title></circle>
<circle cx="882.19" cy="524.83" r="4" fill="#0969da"><title>228,192 tokens: 43.70</title></circle>
<text class="value" x="882.19" y="512.83" text-anchor="end" style="fill:#0969da">43.7</text>
<path d="M87.29 527.41 L192.60 522.11 L307.76 523.74 L422.74 526.18 L537.64 538.30 L648.40 543.49 L767.36 549.59 L815.02 563.67 L858.49 559.52 L882.19 561.18" fill="none" stroke="#008577" stroke-width="2.7"/>
<circle cx="87.29" cy="527.41" r="4" fill="#008577"><title>1,881 tokens: 42.76</title></circle>
<circle cx="192.60" cy="522.11" r="4" fill="#008577"><title>3,552 tokens: 44.69</title></circle>
<circle cx="307.76" cy="523.74" r="4" fill="#008577"><title>7,118 tokens: 44.09</title></circle>
<circle cx="422.74" cy="526.18" r="4" fill="#008577"><title>14,249 tokens: 43.21</title></circle>
<circle cx="537.64" cy="538.30" r="4" fill="#008577"><title>28,512 tokens: 38.80</title></circle>
<circle cx="648.40" cy="543.49" r="4" fill="#008577"><title>55,639 tokens: 36.91</title></circle>
<circle cx="767.36" cy="549.59" r="4" fill="#008577"><title>114,089 tokens: 34.69</title></circle>
<circle cx="815.02" cy="563.67" r="4" fill="#008577"><title>152,124 tokens: 29.57</title></circle>
<circle cx="858.49" cy="559.52" r="4" fill="#008577"><title>197,765 tokens: 31.08</title></circle>
<circle cx="882.19" cy="561.18" r="4" fill="#008577"><title>228,192 tokens: 30.48</title></circle>
<text class="value" x="882.19" y="582.18" text-anchor="end" style="fill:#008577">30.5</text>
<path d="M100.73 534.90 L205.52 537.81 L320.35 541.33 L435.16 534.74 L550.00 536.43 L660.71 540.77 L779.65 546.75 L827.31 551.17 L870.78 554.89 L894.48 557.64 L1009.31 576.19" fill="none" stroke="#8957e5" stroke-width="2.7"/>
<circle cx="100.73" cy="534.90" r="4" fill="#8957e5"><title>2,040 tokens: 40.04</title></circle>
<circle cx="205.52" cy="537.81" r="4" fill="#8957e5"><title>3,840 tokens: 38.98</title></circle>
<circle cx="320.35" cy="541.33" r="4" fill="#8957e5"><title>7,680 tokens: 37.70</title></circle>
<circle cx="435.16" cy="534.74" r="4" fill="#8957e5"><title>15,359 tokens: 40.09</title></circle>
<circle cx="550.00" cy="536.43" r="4" fill="#8957e5"><title>30,720 tokens: 39.48</title></circle>
<circle cx="660.71" cy="540.77" r="4" fill="#8957e5"><title>59,933 tokens: 37.90</title></circle>
<circle cx="779.65" cy="546.75" r="4" fill="#8957e5"><title>122,879 tokens: 35.73</title></circle>
<circle cx="827.31" cy="551.17" r="4" fill="#8957e5"><title>163,840 tokens: 34.12</title></circle>
<circle cx="870.78" cy="554.89" r="4" fill="#8957e5"><title>212,992 tokens: 32.77</title></circle>
<circle cx="894.48" cy="557.64" r="4" fill="#8957e5"><title>245,760 tokens: 31.77</title></circle>
<circle cx="1009.31" cy="576.19" r="4" fill="#8957e5"><title>491,520 tokens: 25.02</title></circle>
<text class="value" x="1009.31" y="564.19" text-anchor="end" style="fill:#8957e5">25.0</text>
<path d="M320.35 543.52 L550.00 557.00 L779.65 563.60" fill="none" stroke="#bc4c00" stroke-width="2.7"/>
<circle cx="320.35" cy="543.52" r="4" fill="#bc4c00"><title>7,680 tokens: 36.90</title></circle>
<circle cx="550.00" cy="557.00" r="4" fill="#bc4c00"><title>30,720 tokens: 32.00</title></circle>
<circle cx="779.65" cy="563.60" r="4" fill="#bc4c00"><title>122,879 tokens: 29.60</title></circle>
<text class="value" x="779.65" y="584.60" text-anchor="end" style="fill:#bc4c00">29.6</text>
<text x="550" y="700" text-anchor="middle" class="label">Input length (tokens; each tick doubles)</text>
<text x="550" y="735" text-anchor="middle" class="label">Test: find five phrases hidden in a long text. Every run found all five correctly.</text>
</svg>
